<?xml version="1.0" encoding="UTF-8"?>
<!-- Generator: https://ezgif.com/png-to-svg -->
<svg version="1.1" xmlns="http://www.w3.org/2000/svg" width="557" height="557">
<path d="M0 0 C1.29 -0.04 1.29 -0.04 2.61 -0.08 C11.4 0.82 18.78 4.52 26.38 8.81 C27.34 9.35 28.3 9.88 29.29 10.43 C36.32 14.35 43.26 18.4 50.18 22.51 C55.84 25.87 61.54 29.15 67.25 32.44 C68.91 33.39 68.91 33.39 70.6 34.37 C72.88 35.68 75.15 36.99 77.42 38.29 C82.88 41.44 88.35 44.6 93.81 47.75 C95.98 49 98.15 50.25 100.31 51.5 C104.65 54 108.98 56.5 113.31 59 C114.39 59.62 115.46 60.24 116.56 60.88 C118.73 62.12 120.89 63.37 123.06 64.62 C128.5 67.76 133.94 70.9 139.38 74.04 C150.82 80.62 162.24 87.24 173.63 93.91 C180.77 98.08 187.95 102.2 195.14 106.29 C199.25 108.63 203.34 110.97 207.44 113.32 C209.65 114.59 211.86 115.85 214.08 117.11 C217.1 118.83 220.11 120.57 223.12 122.31 C224.01 122.81 224.89 123.31 225.8 123.83 C232.84 127.93 239.08 132.65 242.62 140.19 C243 140.96 243.38 141.73 243.77 142.53 C246.5 149.67 247.1 156.08 247.08 163.65 C247.08 164.68 247.09 165.7 247.09 166.75 C247.11 170.17 247.1 173.58 247.1 176.99 C247.11 179.45 247.12 181.9 247.12 184.35 C247.14 190.32 247.15 196.28 247.15 202.24 C247.15 207.1 247.15 211.95 247.16 216.8 C247.18 230.58 247.18 244.35 247.18 258.13 C247.18 258.87 247.18 259.61 247.18 260.38 C247.18 261.12 247.18 261.86 247.18 262.63 C247.18 274.66 247.2 286.69 247.23 298.71 C247.26 311.08 247.27 323.45 247.27 335.82 C247.27 342.76 247.27 349.7 247.3 356.64 C247.32 363.16 247.32 369.69 247.3 376.22 C247.3 378.61 247.3 381 247.32 383.39 C247.45 412.36 247.45 412.36 237.98 424.15 C231.7 430.22 224.31 434.43 216.73 438.68 C214.89 439.72 213.05 440.75 211.21 441.8 C209.3 442.88 207.39 443.96 205.47 445.04 C199.15 448.62 192.85 452.24 186.56 455.88 C185.49 456.49 184.42 457.11 183.32 457.75 C176.18 461.87 169.06 466.02 161.94 470.19 C152.67 475.61 143.35 480.95 134.02 486.27 C124.9 491.47 115.81 496.73 106.75 502.03 C96.22 508.19 85.66 514.27 75.09 520.36 C70.75 522.86 66.4 525.37 62.05 527.88 C59.9 529.12 57.75 530.36 55.6 531.6 C50.56 534.5 45.53 537.41 40.5 540.34 C38.73 541.38 36.96 542.41 35.18 543.44 C32.96 544.73 30.74 546.03 28.53 547.33 C17.03 554 6.46 559.65 -7.14 556.58 C-15.27 554.17 -22.14 550.82 -29.38 546.44 C-31.08 545.43 -32.78 544.42 -34.48 543.42 C-36.23 542.38 -37.98 541.34 -39.73 540.3 C-45.18 537.06 -50.69 533.91 -56.19 530.75 C-58.35 529.5 -60.52 528.25 -62.69 527 C-64.3 526.07 -64.3 526.07 -65.94 525.12 C-69.19 523.25 -72.44 521.38 -75.69 519.5 C-76.76 518.88 -77.83 518.26 -78.94 517.62 C-81.1 516.38 -83.27 515.13 -85.43 513.88 C-90.87 510.74 -96.31 507.6 -101.76 504.46 C-112.21 498.44 -122.65 492.4 -133.06 486.31 C-141.74 481.24 -150.45 476.23 -159.19 471.25 C-168.9 465.72 -178.57 460.13 -188.22 454.49 C-193.51 451.39 -198.82 448.31 -204.14 445.25 C-204.73 444.92 -205.31 444.58 -205.91 444.24 C-208.73 442.62 -211.55 441.01 -214.37 439.4 C-240.26 424.55 -240.26 424.55 -244.74 409.38 C-245.21 407.12 -245.32 405.09 -245.32 402.77 C-245.33 401.88 -245.33 400.98 -245.34 400.06 C-245.34 399.08 -245.33 398.1 -245.33 397.09 C-245.34 396.04 -245.34 395 -245.35 393.92 C-245.36 390.41 -245.36 386.89 -245.36 383.38 C-245.37 380.86 -245.38 378.35 -245.38 375.83 C-245.4 368.28 -245.41 360.72 -245.42 353.17 C-245.43 349.61 -245.43 346.05 -245.44 342.49 C-245.46 330.65 -245.47 318.81 -245.48 306.97 C-245.48 303.89 -245.48 300.82 -245.48 297.75 C-245.48 296.99 -245.48 296.22 -245.48 295.44 C-245.49 283.08 -245.52 270.72 -245.55 258.36 C-245.58 245.66 -245.6 232.96 -245.6 220.26 C-245.61 213.14 -245.62 206.01 -245.64 198.89 C-245.67 192.18 -245.67 185.47 -245.66 178.77 C-245.66 176.31 -245.66 173.85 -245.68 171.39 C-245.7 168.03 -245.69 164.67 -245.68 161.3 C-245.69 160.34 -245.7 159.37 -245.71 158.38 C-245.61 148.25 -242.43 138.54 -235.19 131.25 C-228.75 126.19 -221.72 122.13 -214.56 118.19 C-212.52 117.05 -210.48 115.91 -208.44 114.77 C-207.4 114.18 -206.37 113.6 -205.3 113.01 C-200.33 110.2 -195.42 107.32 -190.5 104.44 C-181.76 99.32 -172.99 94.26 -164.19 89.25 C-154.47 83.71 -144.78 78.12 -135.12 72.47 C-124.6 66.31 -114.03 60.23 -103.47 54.14 C-98.04 51.01 -92.61 47.88 -87.19 44.75 C-85.02 43.5 -82.85 42.25 -80.69 41 C-79.62 40.38 -78.54 39.76 -77.44 39.12 C-74.19 37.25 -70.94 35.37 -67.69 33.5 C-66.61 32.88 -65.54 32.26 -64.43 31.62 C-62.28 30.38 -60.12 29.14 -57.97 27.89 C-52.96 25.01 -47.95 22.12 -42.95 19.21 C-41.2 18.19 -39.45 17.17 -37.7 16.16 C-35.52 14.89 -33.34 13.62 -31.16 12.35 C-10.18 0.18 -10.18 0.18 0 0 Z " fill="#0084BB" transform="translate(278.1875,-0.25)"/>
<path d="M0 0 C0.39 11.95 0.7 23.9 0.88 35.86 C0.97 41.41 1.09 46.96 1.28 52.51 C1.47 57.87 1.57 63.23 1.61 68.6 C1.64 70.64 1.71 72.68 1.8 74.72 C2.47 90.27 2.47 90.27 -1.64 94.82 C-5.71 98.01 -10.15 100.14 -14.91 102.1 C-17.94 103.41 -20.68 105.06 -23.5 106.77 C-25.52 107.93 -27.54 109.09 -29.56 110.25 C-38.02 115.12 -46.46 120.01 -54.88 124.94 C-64.14 130.36 -73.45 135.7 -82.77 141.01 C-94.04 147.43 -105.26 153.95 -116.45 160.51 C-119 162 -119 162 -122.6 163.22 C-124.56 164.23 -124.56 164.23 -126 166 C-127.11 170.61 -126.94 175.24 -126.89 179.95 C-126.89 181.4 -126.91 182.85 -126.92 184.29 C-126.95 188.23 -126.93 192.16 -126.91 196.09 C-126.9 200.2 -126.92 204.31 -126.94 208.42 C-126.97 216.2 -126.97 223.98 -126.95 231.76 C-126.93 240.62 -126.95 249.48 -126.98 258.33 C-127.03 276.56 -127.03 294.78 -127 313 C-125.85 313.45 -125.85 313.45 -124.67 313.91 C-121.7 315.12 -119.02 316.6 -116.23 318.2 C-114.55 319.17 -114.55 319.17 -112.83 320.15 C-111.61 320.85 -110.4 321.55 -109.19 322.25 C-107.93 322.97 -106.66 323.7 -105.4 324.42 C-96.56 329.5 -87.74 334.63 -78.94 339.78 C-71.68 344.02 -64.41 348.24 -57.12 352.44 C-56.05 353.06 -54.98 353.68 -53.87 354.31 C-49.45 356.86 -45.02 359.41 -40.6 361.96 C-38.32 363.27 -36.05 364.58 -33.78 365.89 C-31.58 367.16 -29.37 368.42 -27.16 369.69 C-22.32 372.47 -17.51 375.28 -12.77 378.23 C-11.98 378.72 -11.2 379.2 -10.39 379.7 C-8.97 380.58 -7.56 381.47 -6.16 382.38 C-4.12 383.7 -4.12 383.7 -1 385 C2.77 383.86 6.05 381.92 9.44 379.95 C10.49 379.34 11.54 378.73 12.62 378.1 C13.73 377.45 14.85 376.8 16 376.12 C17.77 375.1 19.53 374.07 21.3 373.05 C22.49 372.36 23.68 371.66 24.88 370.97 C30.11 367.93 35.36 364.93 40.62 361.94 C52.13 355.38 63.57 348.69 75 342 C88.41 334.16 101.83 326.36 115.29 318.61 C123.53 313.85 131.76 309.06 139.97 304.26 C148.26 299.42 156.57 294.63 164.89 289.85 C170.93 286.37 176.95 282.86 182.95 279.31 C184.28 278.52 185.62 277.73 186.95 276.94 C189.52 275.43 192.09 273.9 194.66 272.37 C195.83 271.68 197.01 270.98 198.18 270.29 C199.72 269.37 199.72 269.37 201.3 268.44 C204 267 204 267 208 266 C208 297.02 208 328.04 208 360 C199.09 364.95 190.18 369.9 181 375 C175.33 378.37 175.33 378.37 169.69 381.78 C164.32 385.04 158.84 388.11 153.38 391.21 C146.64 395.05 139.94 398.95 133.25 402.88 C124.87 407.79 116.43 412.59 107.94 417.31 C100.73 421.33 93.57 425.39 86.52 429.68 C80.54 433.31 74.46 436.75 68.39 440.21 C61.6 444.07 54.86 447.99 48.12 451.94 C39.08 457.23 29.99 462.44 20.84 467.57 C16.88 469.79 12.93 472.01 9.07 474.4 C8.02 475.05 6.96 475.7 5.88 476.38 C5.03 476.92 4.18 477.46 3.3 478.02 C0.35 479.27 -0.93 478.84 -4 478 C-6.33 476.86 -6.33 476.86 -8.75 475.4 C-9.68 474.86 -10.6 474.31 -11.55 473.75 C-13.04 472.85 -13.04 472.85 -14.56 471.94 C-16.73 470.65 -18.9 469.37 -21.07 468.09 C-22.77 467.08 -22.77 467.08 -24.5 466.05 C-29.71 462.98 -34.97 460 -40.23 457.01 C-50.5 451.17 -60.73 445.26 -70.92 439.29 C-78.59 434.81 -86.29 430.39 -94 426 C-103.67 420.49 -113.31 414.92 -122.92 409.29 C-130.59 404.81 -138.29 400.4 -146 396 C-169.59 382.55 -169.59 382.55 -174.71 379.32 C-179.82 376.17 -184.46 373.71 -190.29 372.15 C-197.47 369.86 -204.14 366.81 -208 360 C-213.31 344.75 -211.41 326.25 -211.22 310.38 C-211.17 304.38 -211.21 298.39 -211.25 292.39 C-211.31 279.79 -211.24 267.2 -211.11 254.6 C-211 243.81 -211.02 233.04 -211.13 222.25 C-211.26 209.7 -211.31 197.14 -211.23 184.58 C-211.2 177.95 -211.19 171.32 -211.27 164.68 C-211.7 123.22 -211.7 123.22 -205.61 115.45 C-200.06 110.27 -194.05 107.68 -186.77 105.78 C-182.99 104.72 -180.17 103 -176.88 100.88 C-174.96 99.77 -173.04 98.67 -171.12 97.56 C-168.94 96.3 -166.76 95.04 -164.57 93.79 C-163.49 93.16 -162.4 92.54 -161.28 91.89 C-155.85 88.76 -150.43 85.63 -145 82.5 C-142.83 81.25 -140.67 80 -138.5 78.75 C-137.43 78.13 -136.36 77.51 -135.25 76.88 C-106 60 -76.75 43.12 -47.5 26.25 C-46.43 25.63 -45.35 25.01 -44.24 24.37 C-42.1 23.13 -39.95 21.9 -37.8 20.66 C-32.7 17.72 -27.6 14.77 -22.51 11.8 C-20.09 10.39 -17.67 8.99 -15.25 7.58 C-13.53 6.58 -11.81 5.58 -10.1 4.57 C-8.55 3.67 -8.55 3.67 -6.97 2.75 C-5.6 1.95 -5.6 1.95 -4.2 1.14 C-2 0 -2 0 0 0 Z " fill="#FEFEFE" transform="translate(279,39)"/>
<path d="M0 0 C0.81 -0.01 1.63 -0.02 2.47 -0.02 C11.18 1.12 18.49 4.66 26.06 8.94 C27.03 9.47 27.99 10.01 28.98 10.56 C36 14.48 42.94 18.52 49.85 22.62 C54.49 25.38 59.16 28.07 63.83 30.76 C67.18 32.68 70.52 34.61 73.86 36.54 C78.22 39.07 82.6 41.57 86.99 44.05 C88.99 45.2 91 46.35 93 47.5 C93.93 48.02 94.86 48.54 95.82 49.08 C97.1 49.82 97.1 49.82 98.41 50.57 C99.52 51.2 99.52 51.2 100.67 51.85 C102.98 53.77 103.55 55.56 104.5 58.38 C105.51 59.98 106.55 61.56 107.62 63.12 C127.07 93.26 133.44 131.18 126 166.19 C119.61 194.36 105.92 216.24 86.5 237.38 C90.13 237.38 93.16 236.38 96.56 235.25 C97.23 235.03 97.9 234.81 98.58 234.58 C103.65 232.84 108.07 230.57 112.55 227.61 C114.5 226.38 114.5 226.38 117.5 225.38 C118.6 223.57 118.6 223.57 119.5 221.38 C119.89 220.66 120.29 219.94 120.69 219.2 C125.03 211.04 128.16 202.53 131.25 193.83 C133.18 188.5 135.07 183.9 138.5 179.38 C141.53 181.94 142.73 184.75 144.25 188.38 C144.5 188.98 144.76 189.58 145.02 190.2 C146.87 194.65 148.51 199.15 150.11 203.69 C154.09 214.89 157.88 224.1 168.5 230.38 C173.85 232.69 179.31 234.63 184.81 236.56 C187.01 237.34 189.21 238.12 191.41 238.92 C192.76 239.41 194.12 239.89 195.49 240.36 C198.8 241.55 201.28 242.59 203.5 245.38 C202.5 248.38 202.5 248.38 199.22 250.29 C192.61 253.39 185.61 255.55 178.7 257.84 C169.34 261.08 160.9 265.78 155.5 274.38 C153.58 278.53 151.95 282.79 150.36 287.08 C148.72 291.46 147.02 295.83 145.31 300.19 C144.81 301.5 144.81 301.5 144.3 302.85 C143.98 303.67 143.66 304.49 143.33 305.33 C142.91 306.43 142.91 306.43 142.48 307.55 C141.5 309.38 141.5 309.38 138.5 311.38 C134.17 306.83 132.65 301.75 130.69 295.94 C124.74 277.08 124.74 277.08 111.5 263.38 C106.41 261.02 101.16 259.11 95.88 257.22 C92.82 256.13 89.77 254.99 86.72 253.85 C85.36 253.34 83.99 252.83 82.63 252.33 C79.49 251.17 76.45 249.96 73.5 248.38 C73.02 248.75 72.54 249.13 72.05 249.52 C65.93 254.08 59.44 257.69 52.69 261.25 C51.77 261.74 50.85 262.23 49.9 262.73 C49.02 263.19 48.14 263.65 47.23 264.12 C46.44 264.53 45.65 264.94 44.84 265.36 C42.4 266.42 40.12 266.95 37.5 267.38 C40.44 279.83 40.44 279.83 48.14 289.57 C50.22 290.68 52.3 291.53 54.5 292.38 C55.62 292.82 56.75 293.26 57.91 293.72 C61.09 294.97 64.29 296.18 67.5 297.38 C67.5 298.37 67.5 299.36 67.5 300.38 C66.75 300.68 66 300.98 65.23 301.29 C61.97 302.63 58.73 303.99 55.5 305.38 C54.07 305.99 54.07 305.99 52.62 306.61 C51.75 307.01 50.89 307.4 50 307.81 C49.23 308.16 48.45 308.51 47.66 308.87 C42.29 312.61 40.35 318.83 38.25 324.75 C37.98 325.49 37.71 326.22 37.44 326.98 C36.78 328.78 36.14 330.58 35.5 332.38 C34.18 332.38 32.86 332.38 31.5 332.38 C31.31 331.86 31.12 331.34 30.92 330.8 C30.04 328.43 29.15 326.06 28.25 323.69 C27.95 322.87 27.65 322.05 27.34 321.21 C24.58 313.55 24.58 313.55 18.56 308.41 C16.23 307.46 13.88 306.62 11.5 305.81 C1.8 302.47 1.8 302.47 -1.5 298.38 C3.68 295.64 8.73 293.24 14.31 291.44 C19.04 289.73 22.16 287.93 24.5 283.38 C26.33 279.1 27.97 274.77 29.5 270.38 C28.59 270.64 27.68 270.91 26.75 271.18 C-8.86 281.18 -46.12 276.87 -78.64 259.21 C-88.46 253.64 -97.22 247.03 -105.5 239.38 C-105.99 238.92 -106.49 238.46 -107 238 C-113.09 232.31 -118.25 226.38 -122.94 219.49 C-124.33 217.27 -124.33 217.27 -126.5 216.38 C-127.5 212.41 -127.68 209.32 -126.5 205.38 C-122.8 202.01 -118.53 199.97 -114.09 197.73 C-109.02 195.08 -104.12 192.13 -99.19 189.25 C-96.92 187.94 -94.65 186.64 -92.39 185.34 C-85.75 181.52 -79.13 177.7 -72.5 173.88 C-70.33 172.62 -68.17 171.37 -66 170.12 C-64.39 169.2 -64.39 169.2 -62.75 168.25 C-59.5 166.37 -56.25 164.5 -53 162.62 C-51.93 162.01 -50.85 161.39 -49.75 160.75 C-47.59 159.51 -45.44 158.27 -43.29 157.02 C-38.24 154.11 -33.19 151.2 -28.14 148.28 C-26.35 147.25 -24.56 146.22 -22.77 145.18 C-20.53 143.89 -18.28 142.59 -16.04 141.3 C-15.02 140.71 -14 140.12 -12.96 139.52 C-12.07 139.01 -11.18 138.5 -10.27 137.97 C-7.5 136.38 -7.5 136.38 -3.88 134.84 C-1.69 133.57 -0.7 132.94 0.15 130.53 C0.41 128.12 0.43 125.8 0.39 123.38 C0.4 122.48 0.41 121.57 0.42 120.63 C0.45 117.63 0.42 114.64 0.4 111.64 C0.41 109.56 0.42 107.48 0.44 105.4 C0.47 99.93 0.46 94.46 0.44 88.99 C0.43 83.41 0.46 77.82 0.49 72.24 C0.53 61.28 0.53 50.33 0.5 39.38 C-3.42 41.56 -7.34 43.75 -11.25 45.94 C-12.35 46.55 -13.44 47.16 -14.56 47.79 C-21.9 51.89 -29.19 56.07 -36.44 60.31 C-38.1 61.28 -38.1 61.28 -39.79 62.27 C-40.65 62.78 -41.52 63.29 -42.41 63.81 C-48.72 67.51 -55.04 71.16 -61.38 74.81 C-62.46 75.44 -63.54 76.06 -64.65 76.7 C-66.84 77.96 -69.03 79.22 -71.22 80.48 C-77.73 84.23 -84.23 87.99 -90.74 91.75 C-96.21 94.9 -101.67 98.05 -107.14 101.2 C-120.98 109.16 -134.77 117.21 -148.5 125.38 C-149.96 120.63 -148.92 116.66 -148 111.88 C-147.82 110.95 -147.65 110.03 -147.46 109.08 C-145.6 99.97 -142.85 91.16 -139.37 82.54 C-138.48 80.41 -138.48 80.41 -137.85 78.31 C-135.28 71.47 -129.36 68.71 -123.27 65.35 C-120.49 63.82 -117.76 62.21 -115.02 60.62 C-112.79 59.35 -110.55 58.08 -108.31 56.81 C-105.84 55.41 -103.37 54 -100.9 52.59 C-100.28 52.24 -99.66 51.89 -99.02 51.52 C-92.79 47.98 -86.58 44.4 -80.38 40.81 C-79.31 40.2 -78.25 39.58 -77.15 38.95 C-75.01 37.71 -72.86 36.47 -70.72 35.23 C-67.48 33.36 -64.24 31.5 -61.01 29.63 C-59.93 29.01 -58.86 28.39 -57.75 27.75 C-55.6 26.51 -53.44 25.27 -51.28 24.03 C-46.25 21.13 -41.22 18.22 -36.22 15.25 C-34.45 14.21 -32.69 13.17 -30.92 12.13 C-28.71 10.83 -26.5 9.53 -24.3 8.21 C-16.71 3.76 -9 -0.09 0 0 Z " fill="#009CDC" transform="translate(278.5,-0.375)"/>
<path d="M0 0 C1.39 4.17 -0.39 6.59 -2.12 10.38 C-5.75 18.7 -7.99 27.09 -9.96 35.93 C-10.23 37.16 -10.23 37.16 -10.52 38.42 C-11.05 41.03 -11.05 41.03 -11.25 43.86 C-11.98 50.95 -11.98 50.95 -14.8 53.85 C-17.29 55.52 -19.82 56.9 -22.5 58.25 C-24.49 59.34 -26.49 60.43 -28.48 61.52 C-29.54 62.08 -30.59 62.64 -31.68 63.21 C-35.13 65.07 -38.54 67.01 -41.93 68.98 C-42.5 69.32 -43.08 69.65 -43.67 70 C-45.38 71 -47.1 72 -48.81 73 C-50.94 74.23 -53.07 75.46 -55.21 76.69 C-56.11 77.21 -57.01 77.73 -57.94 78.26 C-61.94 80.54 -65.97 82.76 -70 85 C-70 164.53 -70 244.06 -70 326 C-61.09 330.95 -61.09 330.95 -52 336 C-48.2 338.19 -44.41 340.4 -40.62 342.62 C-31.82 347.79 -22.99 352.88 -14.12 357.94 C-1.8 364.97 10.5 372.04 22.78 379.14 C28.19 382.26 33.59 385.38 39 388.5 C41.17 389.75 43.33 391 45.5 392.25 C46.57 392.87 47.65 393.49 48.75 394.12 C60.67 401 72.58 407.88 84.5 414.75 C85.57 415.37 86.65 415.99 87.76 416.63 C89.9 417.87 92.05 419.11 94.2 420.35 C99.27 423.27 104.34 426.2 109.41 429.12 C111.8 430.5 114.19 431.88 116.59 433.25 C118.27 434.23 119.95 435.2 121.64 436.17 C122.66 436.76 123.68 437.35 124.74 437.95 C125.64 438.47 126.53 438.99 127.46 439.52 C130 441 130 441 132.52 442.75 C134.91 444.21 134.91 444.21 137.48 443.87 C140.31 442.89 142.68 441.66 145.26 440.15 C146.8 439.25 146.8 439.25 148.36 438.34 C149.46 437.69 150.56 437.04 151.69 436.38 C152.85 435.7 154.01 435.02 155.17 434.34 C157.59 432.93 160 431.52 162.41 430.1 C167.92 426.87 173.46 423.69 179 420.5 C181.17 419.25 183.33 418 185.5 416.75 C198.5 409.25 211.5 401.75 224.5 394.25 C225.57 393.63 226.65 393.01 227.75 392.37 C229.91 391.13 232.08 389.88 234.24 388.63 C239.72 385.47 245.2 382.31 250.68 379.14 C261.49 372.9 272.32 366.67 283.17 360.49 C289.77 356.72 296.32 352.9 302.88 349.06 C312.07 343.68 321.31 338.39 330.6 333.17 C331.95 332.42 331.95 332.42 333.32 331.64 C334.11 331.2 334.89 330.76 335.7 330.31 C337.38 329.36 339.03 328.36 340.67 327.33 C343 326 343 326 345 326 C344.91 324.81 344.91 324.81 344.83 323.6 C343.3 299.5 343.3 299.5 347.2 293.97 C349.99 291.32 352.82 289.16 356 287 C357.97 285 357.97 285 359.62 282.94 C362.16 279.97 364.75 277.07 367.38 274.19 C371.48 269.65 375.34 264.94 379.15 260.15 C381 258 381 258 383 257 C383.09 266.42 383.16 275.85 383.21 285.27 C383.23 289.65 383.26 294.03 383.3 298.4 C383.35 302.64 383.37 306.87 383.38 311.11 C383.39 312.71 383.4 314.32 383.42 315.92 C383.59 328.79 382.56 340.46 374.17 350.9 C367.89 356.97 360.5 361.18 352.92 365.43 C351.08 366.47 349.24 367.5 347.4 368.55 C345.49 369.63 343.57 370.71 341.66 371.79 C335.34 375.37 329.04 378.99 322.75 382.62 C321.68 383.24 320.61 383.86 319.51 384.5 C312.37 388.62 305.24 392.77 298.12 396.94 C288.85 402.36 279.54 407.7 270.21 413.02 C261.09 418.22 252 423.48 242.93 428.78 C232.41 434.94 221.85 441.02 211.28 447.11 C206.93 449.61 202.59 452.12 198.24 454.63 C196.09 455.87 193.94 457.11 191.79 458.35 C186.75 461.25 181.71 464.16 176.69 467.09 C174.92 468.13 173.14 469.16 171.37 470.19 C169.15 471.48 166.93 472.78 164.71 474.08 C153.22 480.75 142.65 486.4 129.05 483.33 C120.92 480.92 114.05 477.57 106.81 473.19 C105.11 472.18 103.41 471.17 101.7 470.17 C99.95 469.13 98.21 468.09 96.46 467.05 C91.01 463.81 85.5 460.66 80 457.5 C77.83 456.25 75.67 455 73.5 453.75 C72.43 453.13 71.35 452.51 70.25 451.88 C67 450 63.75 448.12 60.5 446.25 C59.43 445.63 58.35 445.01 57.25 444.37 C55.08 443.13 52.92 441.88 50.75 440.63 C45.31 437.49 39.87 434.35 34.43 431.21 C23.98 425.19 13.54 419.15 3.12 413.06 C-5.55 407.99 -14.27 402.98 -23 398 C-32.71 392.47 -42.39 386.88 -52.03 381.24 C-57.33 378.14 -62.63 375.06 -67.96 372 C-68.54 371.67 -69.13 371.33 -69.73 370.99 C-72.54 369.37 -75.36 367.76 -78.19 366.15 C-104.08 351.3 -104.08 351.3 -108.55 336.13 C-109.03 333.87 -109.13 331.84 -109.13 329.52 C-109.14 328.63 -109.14 327.73 -109.15 326.81 C-109.15 325.83 -109.15 324.85 -109.15 323.84 C-109.15 322.79 -109.15 321.75 -109.16 320.67 C-109.17 317.16 -109.17 313.64 -109.18 310.13 C-109.18 307.61 -109.19 305.1 -109.2 302.58 C-109.22 295.03 -109.23 287.47 -109.24 279.92 C-109.24 276.36 -109.25 272.8 -109.25 269.24 C-109.27 257.4 -109.28 245.56 -109.29 233.72 C-109.29 230.64 -109.29 227.57 -109.3 224.5 C-109.3 223.74 -109.3 222.97 -109.3 222.19 C-109.3 209.83 -109.33 197.47 -109.36 185.11 C-109.4 172.41 -109.41 159.71 -109.42 147.01 C-109.42 139.89 -109.43 132.76 -109.45 125.64 C-109.48 118.93 -109.48 112.22 -109.47 105.52 C-109.47 103.06 -109.48 100.6 -109.49 98.14 C-109.51 94.78 -109.5 91.42 -109.49 88.05 C-109.5 87.09 -109.51 86.12 -109.52 85.13 C-109.43 75 -106.24 65.29 -99 58 C-92.56 52.94 -85.53 48.88 -78.38 44.94 C-76.33 43.8 -74.29 42.66 -72.25 41.52 C-71.22 40.93 -70.18 40.35 -69.11 39.76 C-64.15 36.95 -59.23 34.07 -54.31 31.19 C-42.06 24.01 -29.73 16.96 -17.39 9.93 C-11.59 6.63 -5.8 3.31 0 0 Z " fill="#064C70" transform="translate(142,73)"/>
<path d="M0 0 C0.39 11.95 0.7 23.9 0.88 35.86 C0.97 41.41 1.09 46.96 1.28 52.51 C1.47 57.87 1.57 63.23 1.61 68.6 C1.64 70.64 1.71 72.68 1.8 74.72 C2.47 90.27 2.47 90.27 -1.64 94.82 C-5.71 98.01 -10.15 100.14 -14.91 102.1 C-17.94 103.41 -20.68 105.06 -23.5 106.77 C-25.52 107.93 -27.54 109.09 -29.56 110.25 C-38.02 115.12 -46.46 120.01 -54.88 124.94 C-64.14 130.36 -73.45 135.7 -82.77 141.01 C-94.04 147.43 -105.26 153.95 -116.45 160.51 C-119 162 -119 162 -122.6 163.23 C-124.56 164.24 -124.56 164.24 -126 166 C-127.11 170.58 -126.94 175.18 -126.89 179.86 C-126.89 181.3 -126.91 182.73 -126.92 184.17 C-126.95 188.08 -126.93 191.98 -126.91 195.89 C-126.9 199.97 -126.92 204.05 -126.94 208.13 C-126.97 215.86 -126.97 223.59 -126.95 231.31 C-126.93 240.11 -126.95 248.91 -126.98 257.71 C-127.03 275.81 -127.03 293.9 -127 312 C-130.34 310.69 -133.45 309.29 -136.57 307.52 C-137.45 307.03 -138.33 306.53 -139.24 306.02 C-140.67 305.2 -140.67 305.2 -142.12 304.38 C-143.64 303.52 -143.64 303.52 -145.18 302.64 C-153.94 297.65 -162.63 292.53 -171.28 287.35 C-179.3 282.56 -187.38 277.88 -195.48 273.22 C-196.7 272.52 -197.91 271.81 -199.13 271.11 C-202.09 269.41 -205.04 267.7 -208 266 C-208.56 247.08 -208.98 228.16 -209.24 209.23 C-209.37 200.44 -209.54 191.65 -209.81 182.86 C-210.05 175.2 -210.2 167.53 -210.26 159.87 C-210.29 155.81 -210.36 151.76 -210.54 147.7 C-211.56 123.11 -211.56 123.11 -205.64 116.28 C-199.91 111.68 -193.62 108.73 -186.79 106.11 C-183.22 104.69 -180.14 102.9 -176.88 100.88 C-174.96 99.77 -173.04 98.67 -171.12 97.56 C-168.94 96.3 -166.76 95.04 -164.57 93.79 C-163.49 93.16 -162.4 92.54 -161.28 91.89 C-155.85 88.76 -150.43 85.63 -145 82.5 C-142.83 81.25 -140.67 80 -138.5 78.75 C-137.43 78.13 -136.36 77.51 -135.25 76.88 C-106 60 -76.75 43.12 -47.5 26.25 C-46.43 25.63 -45.35 25.01 -44.24 24.37 C-42.1 23.13 -39.95 21.9 -37.8 20.66 C-32.7 17.72 -27.6 14.77 -22.51 11.8 C-20.09 10.39 -17.67 8.99 -15.25 7.58 C-13.53 6.58 -11.81 5.58 -10.1 4.57 C-8.55 3.67 -8.55 3.67 -6.97 2.75 C-5.6 1.95 -5.6 1.95 -4.2 1.14 C-2 0 -2 0 0 0 Z " fill="#F9FBFD" transform="translate(279,39)"/>
<path d="M0 0 C0 31.02 0 62.04 0 94 C-8.91 98.95 -17.82 103.9 -27 109 C-32.67 112.37 -32.67 112.37 -38.31 115.78 C-43.68 119.04 -49.16 122.11 -54.62 125.21 C-61.36 129.05 -68.06 132.95 -74.75 136.88 C-83.13 141.79 -91.57 146.59 -100.06 151.31 C-107.27 155.33 -114.43 159.39 -121.48 163.68 C-127.46 167.31 -133.54 170.75 -139.61 174.21 C-146.4 178.07 -153.14 181.99 -159.88 185.94 C-168.92 191.23 -178.02 196.43 -187.15 201.57 C-193.17 204.96 -199.15 208.39 -205.09 211.93 C-207 213 -207 213 -208 213 C-208.21 200.98 -208.37 188.96 -208.47 176.93 C-208.51 171.35 -208.58 165.77 -208.68 160.19 C-208.78 154.8 -208.83 149.41 -208.85 144.02 C-208.87 141.97 -208.9 139.91 -208.95 137.86 C-209.32 121.78 -209.32 121.78 -206.15 117.5 C-203.81 115.9 -201.67 114.93 -199 114 C-197.95 113.37 -196.9 112.74 -195.82 112.09 C-194.86 111.54 -193.9 111 -192.91 110.44 C-191.81 109.82 -190.71 109.19 -189.58 108.55 C-189 108.22 -188.43 107.9 -187.84 107.57 C-185.38 106.17 -182.91 104.77 -180.45 103.37 C-179.18 102.65 -177.9 101.92 -176.63 101.2 C-170.36 97.64 -164.12 94.04 -157.88 90.44 C-156.29 89.52 -156.29 89.52 -154.67 88.59 C-152.53 87.35 -150.4 86.12 -148.26 84.88 C-144.9 82.94 -141.55 81.01 -138.19 79.08 C-128.24 73.34 -118.28 67.6 -108.39 61.77 C-87.46 49.42 -66.41 37.29 -45.35 25.18 C-33.75 18.5 -22.18 11.78 -10.67 4.95 C-9.4 4.19 -9.4 4.19 -8.09 3.41 C-7.35 2.97 -6.6 2.53 -5.83 2.07 C-2.28 0 -2.28 0 0 0 Z " fill="#84C4EF" transform="translate(487,305)"/>
<path d="M0 0 C1.39 4.17 -0.39 6.59 -2.12 10.38 C-5.75 18.7 -7.99 27.09 -9.96 35.93 C-10.23 37.16 -10.23 37.16 -10.52 38.42 C-11.05 41.03 -11.05 41.03 -11.25 43.86 C-11.98 50.95 -11.98 50.95 -14.8 53.85 C-17.29 55.52 -19.82 56.9 -22.5 58.25 C-24.49 59.34 -26.49 60.43 -28.48 61.52 C-29.54 62.08 -30.59 62.64 -31.68 63.21 C-35.13 65.07 -38.54 67.01 -41.93 68.98 C-42.5 69.32 -43.08 69.65 -43.67 70 C-45.38 71 -47.1 72 -48.81 73 C-50.94 74.23 -53.07 75.46 -55.21 76.69 C-56.11 77.21 -57.01 77.73 -57.94 78.26 C-61.94 80.54 -65.97 82.76 -70 85 C-70.33 161.23 -70.66 237.46 -71 316 C-74.85 314.08 -77.78 311.84 -81 309.06 C-81.57 308.58 -82.13 308.09 -82.72 307.59 C-90.65 300.78 -98.44 293.78 -105.7 286.24 C-107 284.88 -107 284.88 -109 284 C-109.09 257.2 -109.16 230.4 -109.21 203.6 C-109.23 191.16 -109.26 178.71 -109.3 166.27 C-109.34 155.42 -109.37 144.57 -109.38 133.72 C-109.38 127.98 -109.39 122.24 -109.42 116.5 C-109.45 111.09 -109.46 105.68 -109.45 100.27 C-109.45 98.29 -109.46 96.31 -109.48 94.33 C-109.57 81.55 -109.25 70.22 -100.81 59.82 C-94.51 53.48 -86.13 49.21 -78.38 44.94 C-76.33 43.8 -74.29 42.66 -72.25 41.52 C-71.22 40.93 -70.18 40.35 -69.11 39.76 C-64.15 36.95 -59.23 34.07 -54.31 31.19 C-42.06 24.01 -29.73 16.96 -17.39 9.93 C-11.59 6.63 -5.8 3.31 0 0 Z " fill="#0082B8" transform="translate(142,73)"/>
<path d="M0 0 C0.33 0 0.66 0 1 0 C1 48.18 1 96.36 1 146 C-2.45 144.62 -5.38 143.32 -8.57 141.52 C-9.45 141.03 -10.33 140.53 -11.24 140.02 C-12.67 139.2 -12.67 139.2 -14.12 138.38 C-15.13 137.8 -16.14 137.23 -17.18 136.64 C-25.94 131.65 -34.63 126.53 -43.28 121.35 C-55.44 114.09 -67.73 107.08 -80 100 C-80 76.57 -80 53.14 -80 29 C-74.26 31.3 -68.73 33.51 -63.18 36.14 C-62.58 36.43 -61.97 36.72 -61.34 37.01 C-60.05 37.63 -58.75 38.24 -57.45 38.86 C-43.52 45.47 -29.51 51.9 -15.46 58.25 C-14.79 58.56 -14.12 58.86 -13.42 59.17 C-11.61 59.99 -9.79 60.81 -7.98 61.63 C-5.63 62.71 -3.31 63.85 -1 65 C-0.67 43.55 -0.34 22.1 0 0 Z " fill="#BED8EA" transform="translate(151,205)"/>
<path d="M0 0 C3.03 2.56 4.23 5.37 5.75 9 C6.13 9.9 6.13 9.9 6.52 10.82 C8.37 15.27 10.01 19.78 11.61 24.32 C15.59 35.51 19.38 44.72 30 51 C35.35 53.31 40.81 55.26 46.31 57.19 C48.51 57.97 50.71 58.75 52.91 59.54 C54.26 60.03 55.62 60.51 56.99 60.98 C60.3 62.17 62.78 63.21 65 66 C64 69 64 69 60.72 70.91 C54.11 74.01 47.11 76.18 40.2 78.47 C30.84 81.71 22.4 86.4 17 95 C15.08 99.16 13.45 103.41 11.86 107.7 C10.22 112.09 8.52 116.45 6.81 120.81 C6.48 121.69 6.15 122.57 5.8 123.47 C5.48 124.29 5.16 125.11 4.83 125.96 C4.55 126.69 4.27 127.42 3.98 128.18 C3 130 3 130 0 132 C-4.33 127.46 -5.85 122.38 -7.81 116.56 C-13.76 97.7 -13.76 97.7 -27 84 C-33.59 80.95 -40.47 78.58 -47.32 76.19 C-48.81 75.67 -50.29 75.15 -51.78 74.62 C-53.14 74.14 -54.5 73.67 -55.87 73.22 C-60.23 71.67 -62.43 69.83 -65 66 C-59.45 62.16 -54.25 59.91 -47.82 57.9 C-44.43 56.82 -41.24 55.44 -38 54 C-36.29 53.35 -34.58 52.71 -32.88 52.06 C-29.01 50.54 -26.15 48.76 -23 46 C-22.34 46 -21.68 46 -21 46 C-20.72 45.44 -20.45 44.88 -20.16 44.3 C-19.4 42.79 -18.62 41.3 -17.81 39.83 C-13.47 31.66 -10.34 23.16 -7.25 14.45 C-5.32 9.13 -3.43 4.52 0 0 Z " fill="#FCFDFE" transform="translate(417,179)"/>
<path d="M0 0 C0.33 0 0.66 0 1 0 C1.21 15.47 1.37 30.95 1.47 46.42 C1.51 53.61 1.58 60.79 1.68 67.98 C1.77 74.24 1.83 80.51 1.85 86.78 C1.86 90.09 1.89 93.4 1.95 96.72 C2.02 100.43 2.03 104.14 2.02 107.85 C2.05 108.94 2.09 110.02 2.12 111.14 C2.03 118.87 -0.33 122.54 -5.81 127.93 C-6.9 128.96 -6.9 128.96 -8 130 C-8.89 131.03 -9.76 132.07 -10.6 133.14 C-14.3 137.79 -18.04 142.19 -22.32 146.32 C-24.75 148.75 -26.93 151.37 -29.13 154.01 C-31.53 156.57 -34.3 158.75 -37 161 C-37 139.22 -37 117.44 -37 95 C-45.91 99.95 -45.91 99.95 -55 105 C-55.66 104.67 -56.32 104.34 -57 104 C-56.35 103.26 -55.69 102.52 -55.02 101.75 C-43.51 88.56 -33.54 74.28 -25 59 C-24.54 58.18 -24.08 57.37 -23.61 56.53 C-13.62 38.56 -5.63 19.79 0 0 Z " fill="#016894" transform="translate(524,210)"/>
<path d="M0 0 C1.96 2.62 3.65 4.98 5.28 7.77 C18.51 30.98 18.51 30.98 36.59 50.19 C38.79 53.01 38.36 55.52 38.34 59.04 C38.34 60.11 38.34 60.11 38.34 61.2 C38.34 63.55 38.32 65.91 38.29 68.26 C38.29 69.89 38.28 71.53 38.28 73.16 C38.27 77.45 38.24 81.75 38.21 86.05 C38.18 90.43 38.16 94.81 38.15 99.2 C38.11 107.8 38.06 116.4 38 125 C34.19 123.2 31.18 120.8 28 118.06 C27.43 117.58 26.87 117.09 26.28 116.59 C18.35 109.78 10.56 102.78 3.3 95.24 C2 93.88 2 93.88 0 93 C0 62.31 0 31.62 0 0 Z " fill="#016793" transform="translate(33,264)"/>
<path d="M0 0 C2.93 2.49 3.98 5.01 5.3 8.59 C5.72 9.68 6.14 10.78 6.57 11.91 C7.44 14.21 8.3 16.51 9.15 18.82 C12.69 28.04 15.79 32.33 24.75 36.6 C31.75 39.62 38.88 42.31 46 45 C45.77 46.88 45.77 46.88 45 49 C43.1 50.09 43.1 50.09 40.62 50.93 C39.72 51.25 38.82 51.57 37.89 51.9 C36.93 52.22 35.98 52.54 35 52.88 C25.77 56.01 16.18 59.45 11.18 68.39 C9 73.19 7.2 78.13 5.43 83.1 C4.1 86.8 2.58 90.4 1 94 C-2 93 -2 93 -3.28 90.63 C-3.68 89.62 -4.09 88.61 -4.5 87.56 C-4.93 86.47 -5.37 85.39 -5.82 84.27 C-6.83 81.46 -7.67 78.69 -8.44 75.81 C-10.74 67.87 -14.61 62.43 -21.69 58.2 C-25.73 56.1 -29.99 54.71 -34.31 53.31 C-36.08 52.73 -37.85 52.14 -39.61 51.55 C-40.38 51.3 -41.16 51.05 -41.95 50.79 C-44 50 -44 50 -47 48 C-47 47.01 -47 46.02 -47 45 C-46.11 44.67 -46.11 44.67 -45.2 44.33 C-42.46 43.31 -39.73 42.28 -37 41.25 C-36.07 40.9 -35.13 40.55 -34.17 40.2 C-31.43 39.16 -28.71 38.1 -26 37 C-25.25 36.7 -24.51 36.4 -23.74 36.09 C-16.68 32.94 -12.76 28.24 -9.8 21.15 C-9.15 19.42 -8.5 17.68 -7.88 15.94 C-5.74 10.14 -3.69 4.99 0 0 Z " fill="#FBFDFE" transform="translate(328,139)"/>
<path d="M0 0 C12.74 5.7 25.44 11.48 38.09 17.36 C40.7 18.57 43.3 19.77 45.91 20.98 C56.62 25.95 67.32 30.96 78 36 C78.33 26.43 78.66 16.86 79 7 C79.33 7 79.66 7 80 7 C80 29.44 80 51.88 80 75 C76.55 73.62 73.62 72.32 70.43 70.52 C69.55 70.03 68.67 69.53 67.76 69.02 C66.33 68.2 66.33 68.2 64.88 67.38 C63.87 66.8 62.86 66.23 61.82 65.64 C52.93 60.57 44.12 55.36 35.32 50.12 C23.29 42.96 11.15 35.97 -1 29 C-1.02 25.03 -1.04 21.06 -1.05 17.09 C-1.06 15.74 -1.07 14.39 -1.08 13.04 C-1.09 11.1 -1.09 9.16 -1.1 7.22 C-1.1 6.05 -1.11 4.89 -1.11 3.68 C-1 1 -1 1 0 0 Z " fill="#92BEDC" transform="translate(72,276)"/>
<path d="M0 0 C2.16 2.7 3.63 5.18 4.87 8.41 C5.2 9.23 5.52 10.06 5.86 10.91 C6.54 12.63 7.2 14.36 7.86 16.09 C10.2 21.91 12.17 25.26 18.08 27.95 C20.47 28.94 22.88 29.86 25.31 30.75 C26.15 31.07 26.98 31.38 27.85 31.71 C29.89 32.48 31.95 33.24 34 34 C34 34.99 34 35.98 34 37 C33.25 37.3 32.5 37.61 31.73 37.92 C28.47 39.25 25.23 40.62 22 42 C21.05 42.41 20.1 42.81 19.12 43.23 C18.25 43.63 17.39 44.03 16.5 44.44 C15.73 44.79 14.95 45.14 14.16 45.5 C8.79 49.24 6.85 55.46 4.75 61.38 C4.48 62.11 4.21 62.85 3.94 63.61 C3.28 65.4 2.64 67.2 2 69 C0.68 69 -0.64 69 -2 69 C-2.19 68.48 -2.38 67.96 -2.58 67.43 C-3.46 65.05 -4.35 62.68 -5.25 60.31 C-5.55 59.5 -5.85 58.68 -6.16 57.84 C-8.92 50.17 -8.92 50.17 -14.94 45.03 C-17.27 44.09 -19.62 43.25 -22 42.44 C-31.7 39.1 -31.7 39.1 -35 35 C-28.97 31.81 -23.1 29.21 -16.54 27.29 C-9.82 23.89 -7.68 17.44 -5.31 10.75 C-4.73 9.14 -4.14 7.53 -3.55 5.92 C-3.3 5.22 -3.05 4.51 -2.79 3.78 C-2 2 -2 2 0 0 Z " fill="#FAFCFD" transform="translate(312,263)"/>
<path d="M0 0 C-2.48 2.78 -5.22 4.42 -8.45 6.26 C-10.08 7.19 -10.08 7.19 -11.75 8.14 C-12.92 8.8 -14.08 9.46 -15.25 10.12 C-24.65 15.42 -24.65 15.42 -33.84 21.06 C-34.52 21.49 -35.2 21.92 -35.89 22.36 C-37.62 23.48 -39.33 24.62 -41.05 25.75 C-44 27 -44 27 -46.72 26.61 C-51.55 24.24 -56.14 21.53 -60.75 18.75 C-62.16 17.91 -62.16 17.91 -63.59 17.05 C-65.47 15.93 -67.34 14.8 -69.21 13.67 C-71.1 12.54 -72.99 11.42 -74.9 10.31 C-75.8 9.78 -76.71 9.25 -77.64 8.7 C-78.46 8.23 -79.27 7.76 -80.11 7.27 C-82 6 -82 6 -83 4 C-82.18 4.04 -81.35 4.08 -80.51 4.12 C-56.27 5.26 -32.38 5.2 -8.44 0.59 C-5.53 0.09 -2.94 -0.12 0 0 Z " fill="#036F9D" transform="translate(324,398)"/>
</svg>
